------------------------------:TPB IS BENEDICTION TO ME :--------------------------


Film General Complete Info List :

Format                           : MPEG-PS
File size                        : 420 MiB
Duration                         : 42mn 14s
Overall bit rate                 : 1 391 Kbps

Video
ID                               : 224 (0xE0)
Format                           : MPEG Video
Format version                   : Version 1
Format settings, BVOP            : No
Format settings, Matrix          : Default
Duration                         : 42mn 14s
Bit rate mode                    : Constant
Bit rate                         : 1 150 Kbps
Width                            : 352 pixels
Height                           : 240 pixels
Display aspect ratio             : 3:2
Frame rate                       : 29.970 fps
Standard                         : NTSC
Color space                      : YUV
Bit depth                        : 8 bits
Scan type                        : Progressive
Compression mode                 : Lossy
Bits/(Pixel*Frame)               : 0.454
Stream size                      : 344 MiB (82%)

Audio
ID                               : 192 (0xC0)
Format                           : MPEG Audio
Format version                   : Version 1
Format profile                   : Layer 2
Duration                         : 42mn 14s
Bit rate mode                    : Constant
Bit rate                         : 224 Kbps
Channel(s)                       : 2 channels
Sampling rate                    : 44.1 KHz
Compression mode                 : Lossy
Stream size                      : 67.7 MiB (16%)


Screen Link :
 
http://www.desiupload.com/show.php/871506_BawalBoy2011thumb.jpg.html

Seeding Time : 2:00 - 8:00 IST,  Please Post Comments & Seed After Download


------------------------------:TPB IS BENEDICTION TO ME :--------------------------
